<svg width="140" height="70" viewBox="0 0 140 70" fill="none" xmlns="http://www.w3.org/2000/svg">
<rect x="36.5508" y="1.37927" width="67.1248" height="67.1248" fill="#2FE9BC"/>
<path d="M27.9186 24.6528C27.6737 22.5848 26.6805 20.9793 24.939 19.8364C23.1975 18.6936 21.0614 18.1221 18.5308 18.1221C16.6804 18.1221 15.0613 18.4215 13.6736 19.0201C12.2994 19.6187 11.2246 20.4419 10.4491 21.4895C9.68715 22.5371 9.3062 23.7276 9.3062 25.061C9.3062 26.1766 9.57151 27.1358 10.1021 27.9385C10.6463 28.7277 11.3402 29.3875 12.1838 29.9182C13.0273 30.4352 13.9117 30.8637 14.8369 31.2039C15.762 31.5304 16.6124 31.7957 17.3879 31.9998L21.6328 33.1427C22.7213 33.4284 23.9322 33.8229 25.2655 34.3264C26.6125 34.8298 27.8982 35.5168 29.1227 36.3876C30.3608 37.2447 31.3812 38.3468 32.1839 39.6937C32.9867 41.0407 33.388 42.6938 33.388 44.653C33.388 46.9115 32.7962 48.9523 31.6125 50.7755C30.4424 52.5986 28.7281 54.0476 26.4696 55.1224C24.2247 56.1973 21.4968 56.7347 18.2859 56.7347C15.2926 56.7347 12.7008 56.2517 10.5103 55.2857C8.3334 54.3197 6.6191 52.9728 5.36739 51.2449C4.12929 49.517 3.4286 47.5101 3.26533 45.2244H8.48987C8.62592 46.8026 9.15654 48.1088 10.0817 49.1428C11.0205 50.1632 12.2042 50.9251 13.6328 51.4285C15.075 51.9183 16.626 52.1632 18.2859 52.1632C20.2179 52.1632 21.9526 51.8503 23.49 51.2245C25.0274 50.585 26.2451 49.7006 27.1431 48.5714C28.041 47.4285 28.49 46.0952 28.49 44.5713C28.49 43.1836 28.1023 42.0543 27.3268 41.1836C26.5512 40.3128 25.5308 39.6053 24.2655 39.0611C23.0002 38.5169 21.6328 38.0407 20.1634 37.6325L15.0205 36.1631C11.7552 35.2243 9.17014 33.8842 7.26537 32.1427C5.36059 30.4011 4.4082 28.1222 4.4082 25.3059C4.4082 22.9657 5.04086 20.9249 6.30617 19.1834C7.5851 17.4283 9.2994 16.0677 11.4491 15.1017C13.6124 14.1221 16.0273 13.6323 18.694 13.6323C21.3879 13.6323 23.7825 14.1153 25.8778 15.0813C27.973 16.0337 29.6329 17.3398 30.8574 18.9997C32.0955 20.6596 32.7486 22.5439 32.8166 24.6528H27.9186ZM109.302 67.7552V24.6528H113.955V29.6324H114.526C114.88 29.0882 115.37 28.3943 115.996 27.5508C116.635 26.6936 117.547 25.9317 118.731 25.2651C119.928 24.5848 121.547 24.2446 123.588 24.2446C126.227 24.2446 128.554 24.9045 130.567 26.2242C132.581 27.544 134.152 29.4147 135.282 31.8365C136.411 34.2583 136.976 37.1155 136.976 40.408C136.976 43.7278 136.411 46.6054 135.282 49.0408C134.152 51.4625 132.588 53.3401 130.588 54.6735C128.588 55.9932 126.282 56.6531 123.669 56.6531C121.656 56.6531 120.044 56.3197 118.833 55.6531C117.622 54.9728 116.69 54.2041 116.037 53.3469C115.384 52.4762 114.88 51.7551 114.526 51.1836H114.118V67.7552H109.302ZM114.037 40.3264C114.037 42.6938 114.384 44.7822 115.077 46.5918C115.771 48.3877 116.785 49.7959 118.118 50.8163C119.452 51.8231 121.084 52.3265 123.016 52.3265C125.03 52.3265 126.71 51.7959 128.057 50.7347C129.418 49.6598 130.438 48.2176 131.118 46.4081C131.812 44.5849 132.159 42.5577 132.159 40.3264C132.159 38.1223 131.819 36.1359 131.139 34.3672C130.472 32.5848 129.459 31.1767 128.098 30.1426C126.751 29.095 125.057 28.5712 123.016 28.5712C121.057 28.5712 119.411 29.0678 118.078 30.061C116.744 31.0406 115.737 32.4148 115.057 34.1835C114.377 35.9386 114.037 37.9862 114.037 40.3264Z" fill="black"/>
<path d="M45.8728 37.1427V56H41.0565V14.2037H45.8728V29.5508H46.281C47.0157 27.9317 48.1177 26.646 49.5871 25.6936C51.0701 24.7276 53.043 24.2446 55.5056 24.2446C57.6416 24.2446 59.5124 24.6732 61.1179 25.5304C62.7233 26.3739 63.9682 27.6732 64.8526 29.4284C65.7505 31.1699 66.1995 33.3876 66.1995 36.0815V56H61.3832V36.408C61.3832 33.9182 60.7369 31.993 59.4444 30.6324C58.1654 29.2583 56.3899 28.5712 54.1178 28.5712C52.5395 28.5712 51.1246 28.9045 49.8729 29.5712C48.6348 30.2379 47.6552 31.2107 46.9341 32.4896C46.2266 33.7685 45.8728 35.3196 45.8728 37.1427ZM87.7456 56.6531C84.9157 56.6531 82.4327 55.9796 80.2966 54.6326C78.1741 53.2857 76.5142 51.4013 75.3169 48.9795C74.1333 46.5577 73.5414 43.7278 73.5414 40.4897C73.5414 37.2243 74.1333 34.374 75.3169 31.9386C76.5142 29.5032 78.1741 27.612 80.2966 26.2651C82.4327 24.9181 84.9157 24.2446 87.7456 24.2446C90.5756 24.2446 93.0518 24.9181 95.1743 26.2651C97.3103 27.612 98.9702 29.5032 100.154 31.9386C101.351 34.374 101.95 37.2243 101.95 40.4897C101.95 43.7278 101.351 46.5577 100.154 48.9795C98.9702 51.4013 97.3103 53.2857 95.1743 54.6326C93.0518 55.9796 90.5756 56.6531 87.7456 56.6531ZM87.7456 52.3265C89.8953 52.3265 91.664 51.7755 93.0518 50.6734C94.4396 49.5714 95.4668 48.1224 96.1334 46.3265C96.8001 44.5305 97.1335 42.5849 97.1335 40.4897C97.1335 38.3944 96.8001 36.442 96.1334 34.6325C95.4668 32.8229 94.4396 31.3603 93.0518 30.2447C91.664 29.129 89.8953 28.5712 87.7456 28.5712C85.5959 28.5712 83.8272 29.129 82.4395 30.2447C81.0517 31.3603 80.0245 32.8229 79.3578 34.6325C78.6911 36.442 78.3578 38.3944 78.3578 40.4897C78.3578 42.5849 78.6911 44.5305 79.3578 46.3265C80.0245 48.1224 81.0517 49.5714 82.4395 50.6734C83.8272 51.7755 85.5959 52.3265 87.7456 52.3265Z" fill="#FFF5F5"/>
</svg>

